<svg width="409" height="479" viewBox="0 0 409 479" fill="none" xmlns="http://www.w3.org/2000/svg">
<path d="M407.7 444.6C393.4 348.4 356.1 253.6 268.1 223.2C302.3 201.9 325 164 325 120.7C325 54.1 271 0 204.3 0C137.6 0 83.6 54 83.6 120.7C83.6 163.9 106.4 201.9 140.5 223.2C52.5 253.6 15.1 348.4 0.90004 444.6C-1.79996 462.5 12.3 478.6 30.4 478.6H378C396.3 478.6 410.4 462.5 407.7 444.6ZM129.1 120.7C129.1 79.2 162.9 45.4 204.4 45.4C214.3 45.4 222.4 53.5 222.4 63.4C222.4 73.3 214.3 81.4 204.4 81.4C182.7 81.4 165.1 99 165.1 120.7C165.1 130.6 157 138.7 147.1 138.7C137.1 138.7 129.1 130.7 129.1 120.7Z" fill="white"/>
</svg>
