<svg width="54" height="42" viewBox="0 0 54 42" fill="none" xmlns="http://www.w3.org/2000/svg">
<path fill-rule="evenodd" clip-rule="evenodd" d="M53.7064 33.578C52.1426 36.3842 50.3164 39.0241 48.261 41.4646C47.1116 41.2481 45.9691 40.9869 44.8364 40.6811L43.713 40.3633C36.2372 38.1557 29.2487 34.0636 23.1934 28.2907L9.1078 14.8621L9.11142 36.2919L9.08967 36.703C8.97767 37.7951 8.42944 38.8043 7.5585 39.5218C6.68755 40.2392 5.56058 40.6099 4.41089 40.557C3.2612 40.5042 2.17685 40.0319 1.38231 39.238C0.587773 38.444 0.143896 37.3892 0.142578 36.2919V4.53588L0.162506 4.12304C0.270083 3.06542 0.786948 2.08391 1.61232 1.36984C2.4377 0.655776 3.51244 0.260347 4.627 0.260639L37.9385 0.258911L38.3698 0.279641C39.5153 0.386424 40.5739 0.909078 41.3265 1.7394C42.079 2.56972 42.4678 3.64412 42.4124 4.74018C42.357 5.83624 41.8616 6.87002 41.0288 7.62749C40.196 8.38497 39.0896 8.80814 37.9385 8.8094L15.4422 8.8094L29.535 22.2449L30.4246 23.0688C35.4997 27.6654 41.2289 30.8299 47.2661 32.4502C49.3798 33.0217 51.5364 33.3977 53.7064 33.578Z" fill="white"/>
</svg>
