<svg width="18" height="17" viewBox="0 0 18 17" fill="none" xmlns="http://www.w3.org/2000/svg">
<path fill-rule="evenodd" clip-rule="evenodd" d="M9.00001 0.166664C4.40001 0.166664 0.666672 3.9 0.666672 8.5C0.666672 13.1 4.40001 16.8333 9.00001 16.8333C13.6 16.8333 17.3333 13.1 17.3333 8.5C17.3333 3.9 13.6 0.166664 9.00001 0.166664ZM9.00001 15.1667C5.32501 15.1667 2.33334 12.175 2.33334 8.5C2.33334 4.825 5.32501 1.83333 9.00001 1.83333C12.675 1.83333 15.6667 4.825 15.6667 8.5C15.6667 12.175 12.675 15.1667 9.00001 15.1667ZM7.33334 10.3083L12.825 4.81668L14 6.00001L7.33334 12.6667L4.00001 9.33335L5.175 8.15835L7.33334 10.3083Z" fill="#F18F01"/>
</svg>
