<svg width="18" height="17" viewBox="0 0 18 17" fill="none" xmlns="http://www.w3.org/2000/svg">
<path d="M9 0.166687C4.405 0.166687 0.666666 3.90502 0.666666 8.50002C0.666666 13.095 4.405 16.8334 9 16.8334C13.595 16.8334 17.3333 13.095 17.3333 8.50002C17.3333 3.90502 13.595 0.166687 9 0.166687ZM9 15.1667C5.32417 15.1667 2.33333 12.1759 2.33333 8.50002C2.33333 4.82419 5.32417 1.83335 9 1.83335C12.6758 1.83335 15.6667 4.82419 15.6667 8.50002C15.6667 12.1759 12.6758 15.1667 9 15.1667Z" fill="#FEFEFE"/>
<path d="M9.83333 4.33335H8.16667V9.33335H13.1667V7.66669H9.83333V4.33335Z" fill="#FEFEFE"/>
</svg>
