<svg width="17" height="17" viewBox="0 0 17 17" fill="none" xmlns="http://www.w3.org/2000/svg">
<path d="M12.7558 8.74415C12.43 8.41832 11.9033 8.41832 11.5775 8.74415L10.2492 10.0725C9.63333 9.88915 8.48417 9.47248 7.75583 8.74415C7.0275 8.01582 6.61083 6.86665 6.4275 6.25082L7.75583 4.92248C8.08167 4.59665 8.08167 4.06998 7.75583 3.74415L4.4225 0.410818C4.09667 0.0849845 3.57 0.0849845 3.24417 0.410818L0.984165 2.67082C0.667499 2.98748 0.489165 3.42248 0.495832 3.86665C0.514998 5.05332 0.829165 9.17498 4.0775 12.4233C7.32583 15.6717 11.4475 15.985 12.635 16.005C12.6392 16.005 12.6542 16.005 12.6583 16.005C13.0983 16.005 13.5142 15.8317 13.8292 15.5167L16.0892 13.2567C16.415 12.9308 16.415 12.4042 16.0892 12.0783L12.7558 8.74415ZM12.65 14.3375C11.61 14.32 8.05167 14.0408 5.25583 11.2442C2.45083 8.43915 2.17917 4.86832 2.1625 3.84915L3.83333 2.17832L5.98833 4.33332L4.91083 5.41082C4.71167 5.60915 4.62667 5.89582 4.68417 6.17082C4.70416 6.26665 5.19333 8.53915 6.57667 9.92248C7.96 11.3058 10.2325 11.795 10.3283 11.815C10.6058 11.8742 10.89 11.7883 11.0883 11.5892L12.1667 10.5117L14.3217 12.6667L12.65 14.3375Z" fill="#FEFEFE"/>
</svg>
