<svg width="50" height="51" viewBox="0 0 50 51" fill="none" xmlns="http://www.w3.org/2000/svg">
<path d="M15.625 28.6936H10.1562C9.72461 28.6936 9.375 28.344 9.375 27.9124V26.3499C9.375 25.9182 9.72461 25.5686 10.1562 25.5686H15.625V19.3186H10.1562C9.72461 19.3186 9.375 18.969 9.375 18.5374V16.9749C9.375 16.5432 9.72461 16.1936 10.1562 16.1936H15.625V9.9436H10.1562C9.72461 9.9436 9.375 9.59399 9.375 9.16235V7.59985C9.375 7.16821 9.72461 6.8186 10.1562 6.8186H15.625V3.6936C15.625 1.96802 14.2256 0.568604 12.5 0.568604H3.125C1.39941 0.568604 0 1.96802 0 3.6936V47.4436C0 47.7141 0.0888672 47.9553 0.15332 48.2053L15.625 32.7346V28.6936ZM46.875 34.9436H43.75V40.4124C43.75 40.844 43.4004 41.1936 42.9688 41.1936H41.4062C40.9746 41.1936 40.625 40.844 40.625 40.4124V34.9436H34.375V40.4124C34.375 40.844 34.0254 41.1936 33.5938 41.1936H32.0312C31.5996 41.1936 31.25 40.844 31.25 40.4124V34.9436H25V40.4124C25 40.844 24.6504 41.1936 24.2188 41.1936H22.6562C22.2246 41.1936 21.875 40.844 21.875 40.4124V34.9436H17.835L2.36328 50.4153C2.61328 50.4797 2.85547 50.5686 3.125 50.5686H46.875C48.6006 50.5686 50 49.1692 50 47.4436V38.0686C50 36.343 48.6006 34.9436 46.875 34.9436Z" fill="#F18F01"/>
</svg>
