<svg width="50" height="45" viewBox="0 0 50 45" fill="none" xmlns="http://www.w3.org/2000/svg">
<path d="M49.085 18.46L44.666 14.0411C44.0801 13.4551 43.2852 13.126 42.4561 13.126H37.5V5.31256C37.5 2.72369 35.4014 0.625061 32.8125 0.625061H17.1875C14.5986 0.625061 12.5 2.72369 12.5 5.31256V13.1251H7.54395C6.71484 13.1251 5.9209 13.4542 5.33398 14.0401L0.915039 18.46C0.329102 19.046 0 19.8409 0 20.67V28.7501H12.5V27.1876C12.5 26.3243 13.1992 25.6251 14.0625 25.6251H17.1875C18.0508 25.6251 18.75 26.3243 18.75 27.1876V28.7501H31.25V27.1876C31.25 26.3243 31.9492 25.6251 32.8125 25.6251H35.9375C36.8008 25.6251 37.5 26.3243 37.5 27.1876V28.7501H50V20.669C50 19.8409 49.6709 19.046 49.085 18.46ZM31.25 13.1251H18.75V6.87506H31.25V13.1251ZM37.5 33.4376C37.5 34.3008 36.8008 35.0001 35.9375 35.0001H32.8125C31.9492 35.0001 31.25 34.3008 31.25 33.4376V31.8751H18.75V33.4376C18.75 34.3008 18.0508 35.0001 17.1875 35.0001H14.0625C13.1992 35.0001 12.5 34.3008 12.5 33.4376V31.8751H0V41.2501C0 42.9756 1.39941 44.3751 3.125 44.3751H46.875C48.6006 44.3751 50 42.9756 50 41.2501V31.8751H37.5V33.4376Z" fill="#F18F01"/>
</svg>
