<svg width="50" height="51" viewBox="0 0 50 51" fill="none" xmlns="http://www.w3.org/2000/svg">
<path d="M48.9359 39.1426L37.5004 27.707C35.2445 25.4512 31.8754 25.0117 29.1606 26.3496L18.7504 15.9395V9.875L6.2504 0.5L0.000396654 6.75L9.3754 19.25H15.4399L25.85 29.6602C24.5219 32.375 24.9516 35.7441 27.2074 38L38.643 49.4355C40.0688 50.8613 42.3734 50.8613 43.7895 49.4355L48.9359 44.2891C50.352 42.8633 50.352 40.5586 48.9359 39.1426ZM32.393 22.4727C35.1566 22.4727 37.7543 23.5469 39.7074 25.5L41.602 27.3945C43.1449 26.7207 44.6098 25.7832 45.8793 24.5137C49.5023 20.8906 50.7328 15.793 49.5805 11.1641C49.3656 10.2852 48.2621 9.98242 47.6176 10.627L40.352 17.8926L33.7211 16.7891L32.6176 10.1582L39.8832 2.89258C40.5277 2.24805 40.2152 1.14453 39.3266 0.919922C34.6977 -0.222656 29.6 1.00781 25.9867 4.62109C23.2035 7.4043 21.8949 11.0762 21.9633 14.7383L29.9809 22.7559C30.7719 22.5703 31.5922 22.4727 32.393 22.4727ZM22.2465 30.4805L16.7094 24.9434L1.82657 39.8359C-0.614838 42.2773 -0.614838 46.2324 1.82657 48.6738C4.26797 51.1152 8.22305 51.1152 10.6645 48.6738L22.7348 36.6035C21.9926 34.6602 21.768 32.541 22.2465 30.4805ZM6.2504 46.5938C4.96133 46.5938 3.90665 45.5391 3.90665 44.25C3.90665 42.9512 4.95157 41.9062 6.2504 41.9062C7.54923 41.9062 8.59415 42.9512 8.59415 44.25C8.59415 45.5391 7.54923 46.5938 6.2504 46.5938Z" fill="#F18F01"/>
</svg>
